<?xml version="1.0" encoding="UTF-8" standalone="no"?><!DOCTYPE svg PUBLIC "-//W3C//DTD SVG 1.1//EN" "http://www.w3.org/Graphics/SVG/1.1/DTD/svg11.dtd"><svg width="100%" height="100%" viewBox="0 0 1000 1946" version="1.1" xmlns="http://www.w3.org/2000/svg" xmlns:xlink="http://www.w3.org/1999/xlink" xml:space="preserve" xmlns:serif="http://www.serif.com/" style="fill-rule:evenodd;clip-rule:evenodd;stroke-linecap:round;stroke-linejoin:round;stroke-miterlimit:1.5;"><g><clipPath id="_clip1"><rect x="2.337" y="3.528" width="997.524" height="1939.37"/></clipPath><g clip-path="url(#_clip1)"><path d="M225.188,1420.35c-246.515,-426.977 -100.002,-973.768 326.976,-1220.28c426.979,-246.517 973.77,-100.005 1220.29,326.972c246.515,426.977 100.002,973.768 -326.977,1220.28c-426.978,246.517 -973.77,100.005 -1220.29,-326.972Z" style="fill:none;stroke:#eceff3;stroke-width:12.5px;"/><g><path d="M596.129,157.922c78.01,92.968 65.866,231.781 -27.103,309.791c-92.968,78.01 -231.781,65.865 -309.791,-27.103c-78.01,-92.969 -65.865,-231.782 27.103,-309.792c92.969,-78.009 231.781,-65.865 309.791,27.104Z" style="fill:#061324;"/><path d="M548.754,197.675c56.069,66.821 47.34,166.592 -19.481,222.662c-66.821,56.07 -166.593,47.341 -222.662,-19.48c-56.07,-66.821 -47.341,-166.593 19.48,-222.663c66.821,-56.069 166.593,-47.34 222.663,19.481Z" style="fill:#061324;stroke:#eceff3;stroke-width:16.67px;stroke-linecap:butt;stroke-miterlimit:4;"/></g><ellipse cx="998.79" cy="970.599" rx="162.708" ry="156.011" style="fill:#3b658f;"/><ellipse cx="997.922" cy="975.15" rx="439.524" ry="439.525" style="fill:none;stroke:#f28927;stroke-width:12.5px;"/><g><path d="M683.984,1288.08c30.754,-51.183 97.276,-67.769 148.46,-37.015c51.183,30.754 67.769,97.276 37.015,148.46c-30.754,51.183 -97.277,67.769 -148.46,37.015c-51.183,-30.754 -67.769,-97.277 -37.015,-148.46Z" style="fill:#061324;"/><path d="M710.066,1303.75c22.104,-36.788 69.918,-48.709 106.706,-26.605c36.788,22.105 48.709,69.918 26.604,106.706c-22.104,36.788 -69.917,48.709 -106.705,26.604c-36.788,-22.104 -48.709,-69.917 -26.605,-106.705Z" style="fill:#f28927;"/></g><g><path d="M683.984,541.673c30.754,-51.184 97.276,-67.77 148.46,-37.016c51.183,30.754 67.769,97.277 37.015,148.46c-30.754,51.184 -97.277,67.77 -148.46,37.016c-51.183,-30.754 -67.769,-97.277 -37.015,-148.46Z" style="fill:#061324;"/><path d="M710.066,557.345c22.104,-36.788 69.918,-48.71 106.706,-26.605c36.788,22.104 48.709,69.917 26.604,106.705c-22.104,36.788 -69.917,48.71 -106.705,26.605c-36.788,-22.104 -48.709,-69.918 -26.605,-106.705Z" style="fill:#f28927;"/></g></g></g></svg>