<?xml version="1.0" encoding="UTF-8" standalone="no"?>
<!DOCTYPE svg PUBLIC "-//W3C//DTD SVG 1.1//EN" "http://www.w3.org/Graphics/SVG/1.1/DTD/svg11.dtd">
<svg width="100%" height="100%" viewBox="0 0 633 90" version="1.1" xmlns="http://www.w3.org/2000/svg" xmlns:xlink="http://www.w3.org/1999/xlink" xml:space="preserve" xmlns:serif="http://www.serif.com/" style="fill-rule:evenodd;clip-rule:evenodd;stroke-linejoin:round;stroke-miterlimit:2;">
    <g id="Artboard1" transform="matrix(0.992748,0,0,1,0,0)">
        <rect x="0" y="0" width="637.296" height="90" style="fill:none;"/>
        <g id="Text" transform="matrix(1.00731,0,0,1,-5.49683,0)">
            <g transform="matrix(1.22915,0,0,1.22915,-108.961,-16.9739)">
                <path d="M465.75,47.035L473.228,47.035C478.439,47.035 482.135,48.828 482.135,54.175C482.135,59.34 478.383,61.69 473.228,61.69L469.39,61.69L469.39,70.728L465.75,70.728L465.75,47.035ZM472.879,58.765C476.69,58.765 478.523,57.3 478.523,54.174C478.523,51.019 476.633,49.959 472.879,49.959L469.39,49.959L469.39,58.765L472.879,58.765Z" style="fill:rgb(242,137,39);fill-rule:nonzero;"/>
            </g>
            <g transform="matrix(1.22915,0,0,1.22915,-108.961,-16.9739)">
                <path d="M484.842,61.918C484.842,56 488.99,52.615 493.648,52.615C498.306,52.615 502.454,56 502.454,61.918C502.454,67.776 498.306,71.162 493.648,71.162C488.99,71.162 484.842,67.776 484.842,61.918ZM498.758,61.918C498.758,58.111 496.774,55.582 493.648,55.582C490.523,55.582 488.539,58.111 488.539,61.918C488.539,65.695 490.522,68.194 493.648,68.194C496.774,68.194 498.758,65.695 498.758,61.918Z" style="fill:rgb(242,137,39);fill-rule:nonzero;"/>
            </g>
            <g transform="matrix(1.22915,0,0,1.22915,-108.961,-16.9739)">
                <path d="M505.316,61.918C505.316,56.16 509.108,52.615 513.201,52.615C515.116,52.621 516.951,53.401 518.284,54.776L518.371,54.776L518.199,51.673L518.199,45.078L521.808,45.078L521.808,70.728L518.857,70.728L518.57,68.535L518.455,68.535C517.016,70.096 515.026,71.038 512.907,71.162C508.341,71.162 505.316,67.778 505.316,61.918ZM518.199,65.792L518.199,57.433C517.103,56.297 515.598,55.646 514.02,55.625C511.267,55.625 509.012,58.016 509.012,61.875C509.012,65.894 510.795,68.151 513.742,68.151C515.506,68.078 517.146,67.21 518.199,65.792Z" style="fill:rgb(242,137,39);fill-rule:nonzero;"/>
            </g>
            <g transform="matrix(1.22915,0,0,1.22915,-108.961,-16.9739)">
                <path d="M526.514,61.918C526.514,56 531.096,52.615 536.468,52.615C538.879,52.57 541.212,53.482 542.954,55.149L541.218,57.429C539.96,56.28 538.328,55.624 536.624,55.582C536.5,55.574 536.374,55.57 536.249,55.57C532.932,55.57 530.203,58.3 530.203,61.617C530.203,61.717 530.205,61.818 530.21,61.918C530.205,62.024 530.202,62.13 530.202,62.236C530.202,65.51 532.896,68.205 536.171,68.205C536.289,68.205 536.407,68.201 536.525,68.194C538.461,68.135 540.317,67.4 541.768,66.117L543.318,68.44C541.365,70.175 538.846,71.143 536.233,71.162C530.693,71.162 526.514,67.776 526.514,61.918Z" style="fill:rgb(242,137,39);fill-rule:nonzero;"/>
            </g>
            <g transform="matrix(1.22915,0,0,1.22915,-108.961,-16.9739)">
                <path d="M546.933,66.06C546.933,62.096 550.528,60.145 559.452,59.476C559.323,57.292 558.152,55.539 555.01,55.539C552.881,55.675 550.822,56.36 549.036,57.529L547.659,55.12C550.051,53.585 552.812,52.72 555.653,52.615C560.526,52.615 563.062,55.412 563.062,60.083L563.062,70.728L560.081,70.728L559.793,68.436L559.678,68.436C557.775,70.048 555.401,71.005 552.912,71.162C549.531,71.162 546.933,69.174 546.933,66.06ZM559.452,65.922L559.452,61.786C552.513,62.283 550.459,63.678 550.459,65.788C550.459,67.56 552.05,68.295 553.939,68.295C555.996,68.169 557.946,67.329 559.452,65.922L559.452,65.922Z" style="fill:rgb(242,137,39);fill-rule:nonzero;"/>
            </g>
            <g transform="matrix(1.22915,0,0,1.22915,-108.961,-16.9739)">
                <path d="M567.089,68.412L568.696,66.074C570.9,67.619 573.536,68.431 576.227,68.394C578.935,68.394 580.232,67.314 580.232,65.987C580.232,64.737 579.497,63.947 575.048,63.031C570.378,62.063 568.188,60.446 568.188,57.771C568.188,54.813 570.848,52.615 575.742,52.615C578.334,52.669 580.858,53.467 583.01,54.912L581.317,57.163C579.575,55.994 577.526,55.364 575.427,55.353C572.801,55.353 571.785,56.39 571.785,57.599C571.785,58.982 573.195,59.524 576.663,60.263C582.413,61.523 583.857,63.004 583.857,65.772C583.857,68.733 580.99,71.162 575.77,71.162C572.669,71.119 569.649,70.162 567.089,68.412Z" style="fill:rgb(242,137,39);fill-rule:nonzero;"/>
            </g>
            <g transform="matrix(1.22915,0,0,1.22915,-108.961,-16.9739)">
                <path d="M592.317,63.733L592.317,55.93L587.448,55.93L587.448,53.237L592.459,53.049L592.933,47.446L595.927,47.446L595.927,53.049L604.265,53.049L604.265,55.93L595.927,55.93L595.927,63.743C595.927,66.781 597.003,68.251 600.2,68.251C601.577,68.247 602.941,67.991 604.226,67.496L604.958,70.133C603.168,70.801 601.275,71.149 599.365,71.162C594.077,71.162 592.317,68.17 592.317,63.733Z" style="fill:rgb(242,137,39);fill-rule:nonzero;"/>
            </g>
            <path d="M9.193,22.015L15.97,22.015L23.192,43.223L25.716,51.209L26.011,51.209L28.447,43.223L35.756,22.015L42.533,22.015L42.533,70.496L37.272,70.496L37.272,44.038C37.272,39.623 37.903,32.241 38.158,28.309L37.936,28.309L35.219,37.476L27.729,57.624L23.743,57.624L16.386,37.476L13.568,28.309L13.42,28.309C13.796,32.241 14.319,39.623 14.319,44.038L14.319,70.496L9.193,70.496L9.193,22.015Z" style="fill:white;fill-rule:nonzero;"/>
            <path d="M137.05,22.015L166.726,22.015L166.726,26.679L142.552,26.679L142.552,42.632L162.955,42.632L162.955,47.295L142.552,47.295L142.552,65.833L167.464,65.833L167.464,70.496L137.05,70.496L137.05,22.015Z" style="fill:white;fill-rule:nonzero;"/>
            <path d="M176.858,22.015L191.682,22.015C201.46,22.015 208.419,25.559 208.419,35.471C208.419,44.94 201.46,49.577 191.682,49.577L182.42,49.577L182.42,70.496L176.857,70.496L176.858,22.015ZM190.796,45.095C198.595,45.095 202.89,41.914 202.89,35.471C202.89,28.88 198.595,26.498 190.796,26.498L182.42,26.498L182.42,45.095L190.796,45.095ZM195.017,45.371L209.701,70.497L203.454,70.497L190.548,48.054L195.017,45.371Z" style="fill:white;fill-rule:nonzero;"/>
            <path d="M217.275,65.833L229.429,65.833L229.429,26.679L217.275,26.679L217.275,22.015L247.085,22.015L247.085,26.679L234.931,26.679L234.931,65.833L247.085,65.833L247.085,70.496L217.275,70.496L217.275,65.833Z" style="fill:white;fill-rule:nonzero;"/>
            <path d="M269.915,22.015L276.088,22.015L292.604,70.496L286.713,70.496L278.035,43.074C276.27,37.591 274.619,32.33 273.088,26.638L272.793,26.638C271.203,32.33 269.613,37.591 267.847,43.074L259.022,70.496L253.399,70.496L269.915,22.015ZM261.834,50.826L283.948,50.826L283.948,55.309L261.834,55.309L261.834,50.826Z" style="fill:white;fill-rule:nonzero;"/>
            <path d="M301.863,22.015L307.278,22.015L307.278,65.833L331.573,65.833L331.573,70.496L301.863,70.496L301.863,22.015Z" style="fill:white;fill-rule:nonzero;"/>
            <path d="M339.737,65.833L351.891,65.833L351.891,26.679L339.737,26.679L339.737,22.015L369.547,22.015L369.547,26.679L357.393,26.679L357.393,65.833L369.547,65.833L369.547,70.496L339.737,70.496L339.737,65.833Z" style="fill:white;fill-rule:nonzero;"/>
            <path d="M378.437,64.181L381.751,60.383C385.539,64.257 390.722,66.464 396.14,66.511C403.08,66.511 407.188,63.135 407.188,58.383C407.188,52.974 403.289,51.39 398.349,49.295L391.242,46.141C386.51,44.235 380.792,40.934 380.792,33.759C380.792,26.458 387.356,21.129 396.409,21.129C401.915,21.084 407.221,23.22 411.16,27.068L408.234,30.625C404.994,27.571 400.68,25.909 396.228,26C390.322,26 386.355,28.846 386.355,33.43C386.355,38.336 391.046,40.142 395.113,41.752L402.039,44.846C407.978,47.222 412.81,50.524 412.81,57.752C412.81,65.376 406.341,71.382 395.899,71.382C389.344,71.453 383.036,68.851 378.437,64.181Z" style="fill:white;fill-rule:nonzero;"/>
            <path d="M419.614,22.015L426.391,22.015L433.613,43.223L436.136,51.209L436.431,51.209L438.868,43.223L446.178,22.015L452.954,22.015L452.954,70.496L447.693,70.496L447.693,44.038C447.693,39.623 448.324,32.241 448.579,28.309L448.358,28.309L445.64,37.476L438.15,57.624L434.164,57.624L426.807,37.476L423.989,28.309L423.841,28.309C424.216,32.241 424.74,39.623 424.74,44.038L424.74,70.496L419.614,70.496L419.614,22.015Z" style="fill:white;fill-rule:nonzero;"/>
            <path d="M50.637,67.234L66.375,22.014L72.575,22.014L88.313,67.234L88.313,70.495L50.637,70.495L50.637,67.234ZM82.214,65.832L74.67,43.248C72.918,38 71.267,32.503 69.576,26.812L69.281,26.812C67.502,32.503 65.851,38 64.159,43.248L56.616,65.832L82.214,65.832Z" style="fill:white;fill-rule:nonzero;"/>
            <path d="M104.74,26.678L88.492,26.678L88.492,22.014L126.49,22.014L126.49,26.678L110.242,26.678L110.242,70.495L104.74,70.495L104.74,26.678Z" style="fill:white;fill-rule:nonzero;"/>
        </g>
    </g>
</svg>
