<svg clip-rule="evenodd" fill-rule="evenodd" stroke-linejoin="round" stroke-miterlimit="2" viewBox="0 0 633 90" xmlns="http://www.w3.org/2000/svg"><g transform="scale(.992748 1)"><path d="m0 0h637.296v90h-637.296z" fill="none"/><g fill-rule="nonzero" transform="matrix(1.00731 0 0 1 -5.49683 0)"><path d="m465.75 47.035h7.478c5.211 0 8.907 1.793 8.907 7.14 0 5.165-3.752 7.515-8.907 7.515h-3.838v9.038h-3.64zm7.129 11.73c3.811 0 5.644-1.465 5.644-4.591 0-3.155-1.89-4.215-5.644-4.215h-3.489v8.806z" fill="#f28927" transform="matrix(1.22915 0 0 1.22915 -108.961 -16.9739)"/><path d="m484.842 61.918c0-5.918 4.148-9.303 8.806-9.303s8.806 3.385 8.806 9.303c0 5.858-4.148 9.244-8.806 9.244s-8.806-3.386-8.806-9.244zm13.916 0c0-3.807-1.984-6.336-5.11-6.336-3.125 0-5.109 2.529-5.109 6.336 0 3.777 1.983 6.276 5.109 6.276s5.11-2.499 5.11-6.276z" fill="#f28927" transform="matrix(1.22915 0 0 1.22915 -108.961 -16.9739)"/><path d="m505.316 61.918c0-5.758 3.792-9.303 7.885-9.303 1.915.006 3.75.786 5.083 2.161h.087l-.172-3.103v-6.595h3.609v25.65h-2.951l-.287-2.193h-.115c-1.439 1.561-3.429 2.503-5.548 2.627-4.566 0-7.591-3.384-7.591-9.244zm12.883 3.874v-8.359c-1.096-1.136-2.601-1.787-4.179-1.808-2.753 0-5.008 2.391-5.008 6.25 0 4.019 1.783 6.276 4.73 6.276 1.764-.073 3.404-.941 4.457-2.359z" fill="#f28927" transform="matrix(1.22915 0 0 1.22915 -108.961 -16.9739)"/><path d="m526.514 61.918c0-5.918 4.582-9.303 9.954-9.303 2.411-.045 4.744.867 6.486 2.534l-1.736 2.28c-1.258-1.149-2.89-1.805-4.594-1.847-.124-.008-.25-.012-.375-.012-3.317 0-6.046 2.73-6.046 6.047 0 .1.002.201.007.301-.005.106-.008.212-.008.318 0 3.274 2.694 5.969 5.969 5.969.118 0 .236-.004.354-.011 1.936-.059 3.792-.794 5.243-2.077l1.55 2.323c-1.953 1.735-4.472 2.703-7.085 2.722-5.54 0-9.719-3.386-9.719-9.244z" fill="#f28927" transform="matrix(1.22915 0 0 1.22915 -108.961 -16.9739)"/><path d="m546.933 66.06c0-3.964 3.595-5.915 12.519-6.584-.129-2.184-1.3-3.937-4.442-3.937-2.129.136-4.188.821-5.974 1.99l-1.377-2.409c2.392-1.535 5.153-2.4 7.994-2.505 4.873 0 7.409 2.797 7.409 7.468v10.645h-2.981l-.288-2.292h-.115c-1.903 1.612-4.277 2.569-6.766 2.726-3.381 0-5.979-1.988-5.979-5.102zm12.519-.138v-4.136c-6.939.497-8.993 1.892-8.993 4.002 0 1.772 1.591 2.507 3.48 2.507 2.057-.126 4.007-.966 5.513-2.373z" fill="#f28927" transform="matrix(1.22915 0 0 1.22915 -108.961 -16.9739)"/><path d="m567.089 68.412 1.607-2.338c2.204 1.545 4.84 2.357 7.531 2.32 2.708 0 4.005-1.08 4.005-2.407 0-1.25-.735-2.04-5.184-2.956-4.67-.968-6.86-2.585-6.86-5.26 0-2.958 2.66-5.156 7.554-5.156 2.592.054 5.116.852 7.268 2.297l-1.693 2.251c-1.742-1.169-3.791-1.799-5.89-1.81-2.626 0-3.642 1.037-3.642 2.246 0 1.383 1.41 1.925 4.878 2.664 5.75 1.26 7.194 2.741 7.194 5.509 0 2.961-2.867 5.39-8.087 5.39-3.101-.043-6.121-1-8.681-2.75z" fill="#f28927" transform="matrix(1.22915 0 0 1.22915 -108.961 -16.9739)"/><path d="m592.317 63.733v-7.803h-4.869v-2.693l5.011-.188.474-5.603h2.994v5.603h8.338v2.881h-8.338v7.813c0 3.038 1.076 4.508 4.273 4.508 1.377-.004 2.741-.26 4.026-.755l.732 2.637c-1.79.668-3.683 1.016-5.593 1.029-5.288 0-7.048-2.992-7.048-7.429z" fill="#f28927" transform="matrix(1.22915 0 0 1.22915 -108.961 -16.9739)"/><g fill="#fff"><path d="m9.193 22.015h6.777l7.222 21.208 2.524 7.986h.295l2.436-7.986 7.309-21.208h6.777v48.481h-5.261v-26.458c0-4.415.631-11.797.886-15.729h-.222l-2.717 9.167-7.49 20.148h-3.986l-7.357-20.148-2.818-9.167h-.148c.376 3.932.899 11.314.899 15.729v26.458h-5.126z"/><path d="m137.05 22.015h29.676v4.664h-24.174v15.953h20.403v4.663h-20.403v18.538h24.912v4.663h-30.414z"/><path d="m176.858 22.015h14.824c9.778 0 16.737 3.544 16.737 13.456 0 9.469-6.959 14.106-16.737 14.106h-9.262v20.919h-5.563zm13.938 23.08c7.799 0 12.094-3.181 12.094-9.624 0-6.591-4.295-8.973-12.094-8.973h-8.376v18.597zm4.221.276 14.684 25.126h-6.247l-12.906-22.443z"/><path d="m217.275 65.833h12.154v-39.154h-12.154v-4.664h29.81v4.664h-12.154v39.154h12.154v4.663h-29.81z"/><path d="m269.915 22.015h6.173l16.516 48.481h-5.891l-8.678-27.422c-1.765-5.483-3.416-10.744-4.947-16.436h-.295c-1.59 5.692-3.18 10.953-4.946 16.436l-8.825 27.422h-5.623zm-8.081 28.811h22.114v4.483h-22.114z"/><path d="m301.863 22.015h5.415v43.818h24.295v4.663h-29.71z"/><path d="m339.737 65.833h12.154v-39.154h-12.154v-4.664h29.81v4.664h-12.154v39.154h12.154v4.663h-29.81z"/><path d="m378.437 64.181 3.314-3.798c3.788 3.874 8.971 6.081 14.389 6.128 6.94 0 11.048-3.376 11.048-8.128 0-5.409-3.899-6.993-8.839-9.088l-7.107-3.154c-4.732-1.906-10.45-5.207-10.45-12.382 0-7.301 6.564-12.63 15.617-12.63 5.506-.045 10.812 2.091 14.751 5.939l-2.926 3.557c-3.24-3.054-7.554-4.716-12.006-4.625-5.906 0-9.873 2.846-9.873 7.43 0 4.906 4.691 6.712 8.758 8.322l6.926 3.094c5.939 2.376 10.771 5.678 10.771 12.906 0 7.624-6.469 13.63-16.911 13.63-6.555.071-12.863-2.531-17.462-7.201z"/><path d="m419.614 22.015h6.777l7.222 21.208 2.523 7.986h.295l2.437-7.986 7.31-21.208h6.776v48.481h-5.261v-26.458c0-4.415.631-11.797.886-15.729h-.221l-2.718 9.167-7.49 20.148h-3.986l-7.357-20.148-2.818-9.167h-.148c.375 3.932.899 11.314.899 15.729v26.458h-5.126z"/><path d="m50.637 67.234 15.738-45.22h6.2l15.738 45.22v3.261h-37.676zm31.577-1.402-7.544-22.584c-1.752-5.248-3.403-10.745-5.094-16.436h-.295c-1.779 5.691-3.43 11.188-5.122 16.436l-7.543 22.584z"/><path d="m104.74 26.678h-16.248v-4.664h37.998v4.664h-16.248v43.817h-5.502z"/></g></g></g></svg>