<?xml version="1.0" encoding="UTF-8" standalone="no"?>
<!DOCTYPE svg PUBLIC "-//W3C//DTD SVG 1.1//EN" "http://www.w3.org/Graphics/SVG/1.1/DTD/svg11.dtd">
<svg width="100%" height="100%" viewBox="0 0 786 1145" version="1.1" xmlns="http://www.w3.org/2000/svg" xmlns:xlink="http://www.w3.org/1999/xlink" xml:space="preserve" xmlns:serif="http://www.serif.com/" style="fill-rule:evenodd;clip-rule:evenodd;stroke-linejoin:round;stroke-miterlimit:2;">
    <g transform="matrix(1,0,0,1,-160.839,-124.685)">
        <g>
            <g transform="matrix(19.0315,0,0,18.5486,-9200.28,-5326.1)">
                <g transform="matrix(0.322266,0,0,0.296524,430,180)">
                    <path d="M320,394.737L310.371,384L192,384L192,592L320,592L320,394.737Z" style="fill:rgb(59,101,143);"/>
                </g>
                <g transform="matrix(0.322266,0,0,0.296524,430,180)">
                    <rect x="192" y="528" width="128" height="64" style="fill:rgb(242,137,39);"/>
                </g>
            </g>
            <g transform="matrix(1,0,0,1,10.1441,-0.67612)">
                <g transform="matrix(116.667,0,0,116.667,201.628,248.276)">
                    <path d="M0.491,-0.308L0.21,-0.308L0.21,-0.118L0.54,-0.118L0.54,0L0.063,0L0.063,-0.711L0.539,-0.711L0.539,-0.592L0.21,-0.592L0.21,-0.423L0.491,-0.423L0.491,-0.308Z" style="fill:rgb(236,239,243);fill-rule:nonzero;"/>
                </g>
                <g transform="matrix(116.667,0,0,116.667,265.772,248.276)">
                    <path d="M0.252,-0.172L0.35,-0.528L0.498,-0.528L0.319,0L0.185,0L0.006,-0.528L0.154,-0.528L0.252,-0.172Z" style="fill:rgb(236,239,243);fill-rule:nonzero;"/>
                </g>
                <g transform="matrix(116.667,0,0,116.667,323.991,248.276)">
                    <path d="M0.297,0.01C0.22,0.01 0.157,-0.014 0.108,-0.062C0.059,-0.109 0.035,-0.172 0.035,-0.251L0.035,-0.265C0.035,-0.318 0.045,-0.366 0.066,-0.407C0.086,-0.449 0.115,-0.482 0.153,-0.504C0.191,-0.527 0.234,-0.538 0.282,-0.538C0.354,-0.538 0.411,-0.515 0.452,-0.47C0.494,-0.424 0.515,-0.36 0.515,-0.276L0.515,-0.218L0.178,-0.218C0.183,-0.184 0.197,-0.156 0.219,-0.135C0.242,-0.114 0.271,-0.104 0.307,-0.104C0.361,-0.104 0.403,-0.124 0.434,-0.163L0.503,-0.085C0.482,-0.056 0.454,-0.032 0.417,-0.015C0.381,0.001 0.341,0.01 0.297,0.01ZM0.281,-0.424C0.253,-0.424 0.231,-0.414 0.213,-0.396C0.196,-0.377 0.185,-0.35 0.18,-0.314L0.376,-0.314L0.376,-0.326C0.375,-0.357 0.367,-0.381 0.351,-0.398C0.334,-0.415 0.311,-0.424 0.281,-0.424Z" style="fill:rgb(236,239,243);fill-rule:nonzero;"/>
                </g>
                <g transform="matrix(116.667,0,0,116.667,387.053,248.276)">
                    <path d="M0.351,-0.396C0.332,-0.399 0.315,-0.4 0.3,-0.4C0.247,-0.4 0.212,-0.382 0.195,-0.346L0.195,0L0.054,0L0.054,-0.528L0.188,-0.528L0.191,-0.465C0.22,-0.514 0.259,-0.538 0.309,-0.538C0.325,-0.538 0.339,-0.536 0.353,-0.532L0.351,-0.396Z" style="fill:rgb(236,239,243);fill-rule:nonzero;"/>
                </g>
                <g transform="matrix(116.667,0,0,116.667,458.659,248.276)">
                    <path d="M0.514,-0.192L0.583,-0.528L0.719,-0.528L0.584,0L0.466,0L0.366,-0.333L0.266,0L0.148,0L0.014,-0.528L0.15,-0.528L0.219,-0.192L0.315,-0.528L0.417,-0.528L0.514,-0.192Z" style="fill:rgb(236,239,243);fill-rule:nonzero;"/>
                </g>
                <g transform="matrix(116.667,0,0,116.667,544.393,248.276)">
                    <path d="M0.032,-0.269C0.032,-0.321 0.042,-0.368 0.063,-0.409C0.083,-0.45 0.112,-0.482 0.15,-0.504C0.188,-0.527 0.232,-0.538 0.282,-0.538C0.353,-0.538 0.411,-0.516 0.456,-0.473C0.501,-0.429 0.527,-0.37 0.532,-0.295L0.533,-0.259C0.533,-0.178 0.51,-0.113 0.465,-0.064C0.42,-0.015 0.359,0.01 0.283,0.01C0.207,0.01 0.146,-0.015 0.1,-0.063C0.055,-0.112 0.032,-0.179 0.032,-0.263L0.032,-0.269ZM0.173,-0.259C0.173,-0.209 0.183,-0.17 0.202,-0.144C0.221,-0.117 0.248,-0.104 0.283,-0.104C0.317,-0.104 0.344,-0.117 0.363,-0.143C0.382,-0.17 0.392,-0.211 0.392,-0.269C0.392,-0.318 0.382,-0.356 0.363,-0.383C0.344,-0.41 0.317,-0.424 0.282,-0.424C0.247,-0.424 0.221,-0.41 0.202,-0.384C0.183,-0.357 0.173,-0.315 0.173,-0.259Z" style="fill:rgb(236,239,243);fill-rule:nonzero;"/>
                </g>
                <g transform="matrix(116.667,0,0,116.667,610.36,248.276)">
                    <path d="M0.184,-0.528L0.188,-0.467C0.226,-0.514 0.277,-0.538 0.34,-0.538C0.396,-0.538 0.438,-0.522 0.465,-0.489C0.493,-0.456 0.507,-0.407 0.507,-0.341L0.507,0L0.366,0L0.366,-0.338C0.366,-0.368 0.36,-0.39 0.347,-0.403C0.334,-0.417 0.312,-0.423 0.282,-0.423C0.242,-0.423 0.212,-0.406 0.192,-0.373L0.192,0L0.051,0L0.051,-0.528L0.184,-0.528Z" style="fill:rgb(236,239,243);fill-rule:nonzero;"/>
                </g>
                <g transform="matrix(116.667,0,0,116.667,675.7,248.276)">
                    <path d="M0.032,-0.268C0.032,-0.35 0.051,-0.416 0.088,-0.465C0.125,-0.514 0.175,-0.538 0.239,-0.538C0.291,-0.538 0.333,-0.519 0.367,-0.48L0.367,-0.75L0.508,-0.75L0.508,0L0.381,0L0.374,-0.056C0.339,-0.012 0.294,0.01 0.238,0.01C0.176,0.01 0.126,-0.015 0.089,-0.064C0.051,-0.113 0.032,-0.181 0.032,-0.268ZM0.173,-0.258C0.173,-0.208 0.182,-0.17 0.199,-0.144C0.216,-0.118 0.242,-0.104 0.274,-0.104C0.318,-0.104 0.349,-0.123 0.367,-0.16L0.367,-0.368C0.349,-0.405 0.319,-0.423 0.275,-0.423C0.207,-0.423 0.173,-0.368 0.173,-0.258Z" style="fill:rgb(236,239,243);fill-rule:nonzero;"/>
                </g>
                <g transform="matrix(116.667,0,0,116.667,741.439,248.276)">
                    <path d="M0.297,0.01C0.22,0.01 0.157,-0.014 0.108,-0.062C0.059,-0.109 0.035,-0.172 0.035,-0.251L0.035,-0.265C0.035,-0.318 0.045,-0.366 0.066,-0.407C0.086,-0.449 0.115,-0.482 0.153,-0.504C0.191,-0.527 0.234,-0.538 0.282,-0.538C0.354,-0.538 0.411,-0.515 0.452,-0.47C0.494,-0.424 0.515,-0.36 0.515,-0.276L0.515,-0.218L0.178,-0.218C0.183,-0.184 0.197,-0.156 0.219,-0.135C0.242,-0.114 0.271,-0.104 0.307,-0.104C0.361,-0.104 0.403,-0.124 0.434,-0.163L0.503,-0.085C0.482,-0.056 0.454,-0.032 0.417,-0.015C0.381,0.001 0.341,0.01 0.297,0.01ZM0.281,-0.424C0.253,-0.424 0.231,-0.414 0.213,-0.396C0.196,-0.377 0.185,-0.35 0.18,-0.314L0.376,-0.314L0.376,-0.326C0.375,-0.357 0.367,-0.381 0.351,-0.398C0.334,-0.415 0.311,-0.424 0.281,-0.424Z" style="fill:rgb(236,239,243);fill-rule:nonzero;"/>
                </g>
                <g transform="matrix(116.667,0,0,116.667,804.501,248.276)">
                    <path d="M0.351,-0.396C0.332,-0.399 0.315,-0.4 0.3,-0.4C0.247,-0.4 0.212,-0.382 0.195,-0.346L0.195,0L0.054,0L0.054,-0.528L0.188,-0.528L0.191,-0.465C0.22,-0.514 0.259,-0.538 0.309,-0.538C0.325,-0.538 0.339,-0.536 0.353,-0.532L0.351,-0.396Z" style="fill:rgb(236,239,243);fill-rule:nonzero;"/>
                </g>
                <g transform="matrix(116.667,0,0,116.667,201.628,364.943)">
                    <path d="M0.192,-0.471C0.229,-0.516 0.276,-0.538 0.333,-0.538C0.448,-0.538 0.506,-0.472 0.507,-0.338L0.507,0L0.366,0L0.366,-0.334C0.366,-0.365 0.36,-0.387 0.347,-0.402C0.334,-0.416 0.312,-0.423 0.282,-0.423C0.24,-0.423 0.21,-0.407 0.192,-0.375L0.192,0L0.051,0L0.051,-0.75L0.192,-0.75L0.192,-0.471Z" style="fill:rgb(236,239,243);fill-rule:nonzero;"/>
                </g>
                <g transform="matrix(116.667,0,0,116.667,266.911,364.943)">
                    <path d="M0.032,-0.269C0.032,-0.321 0.042,-0.368 0.063,-0.409C0.083,-0.45 0.112,-0.482 0.15,-0.504C0.188,-0.527 0.232,-0.538 0.282,-0.538C0.353,-0.538 0.411,-0.516 0.456,-0.473C0.501,-0.429 0.527,-0.37 0.532,-0.295L0.533,-0.259C0.533,-0.178 0.51,-0.113 0.465,-0.064C0.42,-0.015 0.359,0.01 0.283,0.01C0.207,0.01 0.146,-0.015 0.1,-0.063C0.055,-0.112 0.032,-0.179 0.032,-0.263L0.032,-0.269ZM0.173,-0.259C0.173,-0.209 0.183,-0.17 0.202,-0.144C0.221,-0.117 0.248,-0.104 0.283,-0.104C0.317,-0.104 0.344,-0.117 0.363,-0.143C0.382,-0.17 0.392,-0.211 0.392,-0.269C0.392,-0.318 0.382,-0.356 0.363,-0.383C0.344,-0.41 0.317,-0.424 0.282,-0.424C0.247,-0.424 0.221,-0.41 0.202,-0.384C0.183,-0.357 0.173,-0.315 0.173,-0.259Z" style="fill:rgb(236,239,243);fill-rule:nonzero;"/>
                </g>
                <g transform="matrix(116.667,0,0,116.667,332.878,364.943)">
                    <path d="M0.514,-0.192L0.583,-0.528L0.719,-0.528L0.584,0L0.466,0L0.366,-0.333L0.266,0L0.148,0L0.014,-0.528L0.15,-0.528L0.219,-0.192L0.315,-0.528L0.417,-0.528L0.514,-0.192Z" style="fill:rgb(236,239,243);fill-rule:nonzero;"/>
                </g>
                <g transform="matrix(116.667,0,0,116.667,447.665,364.943)">
                    <path d="M0.36,0C0.354,-0.013 0.349,-0.028 0.346,-0.047C0.312,-0.009 0.268,0.01 0.213,0.01C0.161,0.01 0.118,-0.005 0.084,-0.035C0.05,-0.065 0.033,-0.103 0.033,-0.148C0.033,-0.204 0.054,-0.247 0.095,-0.277C0.137,-0.307 0.197,-0.322 0.275,-0.323L0.34,-0.323L0.34,-0.353C0.34,-0.377 0.334,-0.397 0.322,-0.412C0.309,-0.426 0.289,-0.434 0.262,-0.434C0.238,-0.434 0.22,-0.428 0.206,-0.417C0.193,-0.405 0.186,-0.389 0.186,-0.37L0.045,-0.37C0.045,-0.4 0.054,-0.429 0.073,-0.455C0.092,-0.481 0.119,-0.501 0.153,-0.516C0.188,-0.531 0.227,-0.538 0.27,-0.538C0.335,-0.538 0.386,-0.522 0.425,-0.489C0.463,-0.456 0.482,-0.41 0.482,-0.351L0.482,-0.122C0.482,-0.072 0.489,-0.034 0.503,-0.008L0.503,0L0.36,0ZM0.244,-0.098C0.264,-0.098 0.284,-0.103 0.301,-0.112C0.319,-0.121 0.332,-0.134 0.34,-0.149L0.34,-0.24L0.288,-0.24C0.217,-0.24 0.179,-0.216 0.175,-0.167L0.174,-0.159C0.174,-0.141 0.181,-0.127 0.193,-0.115C0.205,-0.104 0.222,-0.098 0.244,-0.098Z" style="fill:rgb(236,239,243);fill-rule:nonzero;"/>
                </g>
                <g transform="matrix(116.667,0,0,116.667,510.214,364.943)">
                    <path d="M0.184,-0.528L0.188,-0.467C0.226,-0.514 0.277,-0.538 0.34,-0.538C0.396,-0.538 0.438,-0.522 0.465,-0.489C0.493,-0.456 0.507,-0.407 0.507,-0.341L0.507,0L0.366,0L0.366,-0.338C0.366,-0.368 0.36,-0.39 0.347,-0.403C0.334,-0.417 0.312,-0.423 0.282,-0.423C0.242,-0.423 0.212,-0.406 0.192,-0.373L0.192,0L0.051,0L0.051,-0.528L0.184,-0.528Z" style="fill:rgb(236,239,243);fill-rule:nonzero;"/>
                </g>
                <g transform="matrix(116.667,0,0,116.667,604.607,364.943)">
                    <path d="M0.432,-0.187C0.432,-0.214 0.422,-0.235 0.403,-0.25C0.383,-0.265 0.348,-0.281 0.297,-0.297C0.247,-0.314 0.206,-0.33 0.177,-0.346C0.096,-0.389 0.056,-0.448 0.056,-0.522C0.056,-0.56 0.066,-0.595 0.088,-0.625C0.11,-0.655 0.141,-0.678 0.181,-0.695C0.222,-0.712 0.267,-0.721 0.318,-0.721C0.369,-0.721 0.414,-0.712 0.454,-0.693C0.493,-0.675 0.524,-0.649 0.546,-0.615C0.568,-0.582 0.579,-0.544 0.579,-0.501L0.433,-0.501C0.433,-0.534 0.422,-0.559 0.402,-0.577C0.381,-0.595 0.353,-0.604 0.315,-0.604C0.28,-0.604 0.252,-0.596 0.232,-0.581C0.212,-0.566 0.202,-0.546 0.202,-0.521C0.202,-0.498 0.214,-0.479 0.237,-0.463C0.26,-0.448 0.295,-0.433 0.34,-0.419C0.423,-0.394 0.484,-0.363 0.522,-0.326C0.56,-0.289 0.579,-0.243 0.579,-0.188C0.579,-0.126 0.556,-0.078 0.509,-0.043C0.463,-0.008 0.4,0.01 0.321,0.01C0.267,0.01 0.217,0 0.172,-0.02C0.127,-0.04 0.093,-0.068 0.069,-0.103C0.045,-0.137 0.034,-0.178 0.034,-0.224L0.181,-0.224C0.181,-0.145 0.228,-0.106 0.321,-0.106C0.356,-0.106 0.383,-0.113 0.403,-0.127C0.422,-0.141 0.432,-0.161 0.432,-0.187Z" style="fill:rgb(236,239,243);fill-rule:nonzero;"/>
                </g>
                <g transform="matrix(116.667,0,0,116.667,676.327,364.943)">
                    <path d="M0.491,-0.308L0.21,-0.308L0.21,-0.118L0.54,-0.118L0.54,0L0.063,0L0.063,-0.711L0.539,-0.711L0.539,-0.592L0.21,-0.592L0.21,-0.423L0.491,-0.423L0.491,-0.308Z" style="fill:rgb(236,239,243);fill-rule:nonzero;"/>
                </g>
                <g transform="matrix(116.667,0,0,116.667,741.952,364.943)">
                    <path d="M0.255,-0.711L0.438,-0.195L0.619,-0.711L0.812,-0.711L0.812,0L0.665,0L0.665,-0.194L0.679,-0.53L0.487,0L0.387,0L0.195,-0.529L0.21,-0.194L0.21,0L0.063,0L0.063,-0.711L0.255,-0.711Z" style="fill:rgb(236,239,243);fill-rule:nonzero;"/>
                </g>
                <g transform="matrix(116.667,0,0,116.667,201.628,481.609)">
                    <path d="M0.514,-0.192L0.583,-0.528L0.719,-0.528L0.584,0L0.466,0L0.366,-0.333L0.266,0L0.148,0L0.014,-0.528L0.15,-0.528L0.219,-0.192L0.315,-0.528L0.417,-0.528L0.514,-0.192Z" style="fill:rgb(236,239,243);fill-rule:nonzero;"/>
                </g>
                <g transform="matrix(116.667,0,0,116.667,287.362,481.609)">
                    <path d="M0.032,-0.269C0.032,-0.321 0.042,-0.368 0.063,-0.409C0.083,-0.45 0.112,-0.482 0.15,-0.504C0.188,-0.527 0.232,-0.538 0.282,-0.538C0.353,-0.538 0.411,-0.516 0.456,-0.473C0.501,-0.429 0.527,-0.37 0.532,-0.295L0.533,-0.259C0.533,-0.178 0.51,-0.113 0.465,-0.064C0.42,-0.015 0.359,0.01 0.283,0.01C0.207,0.01 0.146,-0.015 0.1,-0.063C0.055,-0.112 0.032,-0.179 0.032,-0.263L0.032,-0.269ZM0.173,-0.259C0.173,-0.209 0.183,-0.17 0.202,-0.144C0.221,-0.117 0.248,-0.104 0.283,-0.104C0.317,-0.104 0.344,-0.117 0.363,-0.143C0.382,-0.17 0.392,-0.211 0.392,-0.269C0.392,-0.318 0.382,-0.356 0.363,-0.383C0.344,-0.41 0.317,-0.424 0.282,-0.424C0.247,-0.424 0.221,-0.41 0.202,-0.384C0.183,-0.357 0.173,-0.315 0.173,-0.259Z" style="fill:rgb(236,239,243);fill-rule:nonzero;"/>
                </g>
                <g transform="matrix(116.667,0,0,116.667,353.329,481.609)">
                    <path d="M0.351,-0.396C0.332,-0.399 0.315,-0.4 0.3,-0.4C0.247,-0.4 0.212,-0.382 0.195,-0.346L0.195,0L0.054,0L0.054,-0.528L0.188,-0.528L0.191,-0.465C0.22,-0.514 0.259,-0.538 0.309,-0.538C0.325,-0.538 0.339,-0.536 0.353,-0.532L0.351,-0.396Z" style="fill:rgb(236,239,243);fill-rule:nonzero;"/>
                </g>
                <g transform="matrix(116.667,0,0,116.667,395.883,481.609)">
                    <path d="M0.246,-0.212L0.195,-0.161L0.195,0L0.054,0L0.054,-0.75L0.195,-0.75L0.195,-0.334L0.223,-0.37L0.358,-0.528L0.527,-0.528L0.336,-0.308L0.544,0L0.382,0L0.246,-0.212Z" style="fill:rgb(236,239,243);fill-rule:nonzero;"/>
                </g>
                <g transform="matrix(116.667,0,0,116.667,458.204,481.609)">
                    <path d="M0.34,-0.146C0.34,-0.163 0.332,-0.177 0.315,-0.187C0.298,-0.197 0.27,-0.206 0.232,-0.213C0.107,-0.24 0.044,-0.293 0.044,-0.374C0.044,-0.42 0.063,-0.46 0.102,-0.491C0.141,-0.522 0.192,-0.538 0.255,-0.538C0.322,-0.538 0.376,-0.522 0.416,-0.491C0.456,-0.459 0.476,-0.418 0.476,-0.368L0.335,-0.368C0.335,-0.388 0.328,-0.405 0.315,-0.418C0.302,-0.431 0.282,-0.438 0.254,-0.438C0.231,-0.438 0.212,-0.432 0.199,-0.421C0.186,-0.411 0.18,-0.397 0.18,-0.38C0.18,-0.365 0.187,-0.352 0.202,-0.343C0.217,-0.333 0.242,-0.325 0.277,-0.318C0.312,-0.311 0.342,-0.303 0.366,-0.294C0.44,-0.267 0.478,-0.219 0.478,-0.152C0.478,-0.104 0.457,-0.065 0.416,-0.035C0.374,-0.005 0.321,0.01 0.255,0.01C0.211,0.01 0.172,0.002 0.137,-0.014C0.103,-0.03 0.076,-0.051 0.057,-0.079C0.037,-0.106 0.027,-0.136 0.027,-0.168L0.161,-0.168C0.162,-0.143 0.172,-0.124 0.189,-0.11C0.206,-0.097 0.229,-0.09 0.258,-0.09C0.285,-0.09 0.306,-0.095 0.32,-0.106C0.333,-0.116 0.34,-0.129 0.34,-0.146Z" style="fill:rgb(236,239,243);fill-rule:nonzero;"/>
                </g>
                <g transform="matrix(116.667,0,0,116.667,518.189,481.609)">
                    <path d="M0.169,-0.218C0.169,-0.264 0.175,-0.3 0.186,-0.327C0.197,-0.354 0.217,-0.381 0.247,-0.407C0.276,-0.433 0.296,-0.455 0.306,-0.471C0.315,-0.487 0.32,-0.505 0.32,-0.523C0.32,-0.578 0.295,-0.605 0.244,-0.605C0.22,-0.605 0.201,-0.598 0.186,-0.583C0.172,-0.568 0.164,-0.548 0.164,-0.522L0.022,-0.522C0.023,-0.584 0.043,-0.633 0.082,-0.668C0.122,-0.703 0.176,-0.721 0.244,-0.721C0.313,-0.721 0.367,-0.704 0.405,-0.671C0.443,-0.637 0.462,-0.59 0.462,-0.529C0.462,-0.502 0.456,-0.476 0.443,-0.451C0.431,-0.426 0.409,-0.399 0.378,-0.369L0.339,-0.332C0.314,-0.308 0.3,-0.28 0.296,-0.248L0.294,-0.218L0.169,-0.218ZM0.155,-0.068C0.155,-0.09 0.163,-0.108 0.177,-0.122C0.192,-0.136 0.211,-0.144 0.234,-0.144C0.257,-0.144 0.276,-0.136 0.291,-0.122C0.306,-0.108 0.313,-0.09 0.313,-0.068C0.313,-0.047 0.306,-0.029 0.292,-0.015C0.277,-0.001 0.258,0.006 0.234,0.006C0.211,0.006 0.191,-0.001 0.177,-0.015C0.163,-0.029 0.155,-0.047 0.155,-0.068Z" style="fill:rgb(236,239,243);fill-rule:nonzero;"/>
                </g>
            </g>
            <g transform="matrix(1,0,0,1,-1.13687e-13,4.98269)">
                <g transform="matrix(79.1667,0,0,79.1667,211.772,1005.81)">
                    <path d="M0.114,0L0.114,-0.656L0.52,-0.656L0.52,-0.586L0.198,-0.586L0.198,-0.38L0.47,-0.38L0.47,-0.309L0.198,-0.309L0.198,-0.071L0.53,-0.071L0.53,0L0.114,0Z" style="fill:rgb(236,239,243);fill-rule:nonzero;"/>
                </g>
                <g transform="matrix(79.1667,0,0,79.1667,259.272,1005.81)">
                    <path d="M0.102,0L0.102,-0.656L0.3,-0.656C0.336,-0.656 0.369,-0.653 0.399,-0.646C0.429,-0.639 0.455,-0.628 0.476,-0.614C0.497,-0.599 0.514,-0.579 0.526,-0.554C0.537,-0.529 0.543,-0.499 0.543,-0.463C0.543,-0.428 0.537,-0.398 0.526,-0.373C0.514,-0.348 0.497,-0.327 0.476,-0.31C0.454,-0.293 0.428,-0.281 0.399,-0.273C0.369,-0.264 0.336,-0.26 0.3,-0.26L0.185,-0.26L0.185,0L0.102,0ZM0.185,-0.328L0.29,-0.328C0.348,-0.328 0.391,-0.339 0.418,-0.361C0.445,-0.382 0.459,-0.416 0.459,-0.463C0.459,-0.51 0.445,-0.543 0.417,-0.562C0.389,-0.58 0.347,-0.589 0.29,-0.589L0.185,-0.589L0.185,-0.328Z" style="fill:rgb(236,239,243);fill-rule:nonzero;"/>
                </g>
                <g transform="matrix(79.1667,0,0,79.1667,306.772,1005.81)">
                    <path d="M0.095,0L0.095,-0.071L0.258,-0.071L0.258,-0.586L0.095,-0.586L0.095,-0.656L0.505,-0.656L0.505,-0.586L0.342,-0.586L0.342,-0.071L0.505,-0.071L0.505,0L0.095,0Z" style="fill:rgb(236,239,243);fill-rule:nonzero;"/>
                </g>
                <g transform="matrix(79.1667,0,0,79.1667,354.272,1005.81)">
                    <path d="M0.305,0.012C0.257,0.012 0.213,0.003 0.173,-0.014C0.132,-0.031 0.097,-0.055 0.067,-0.085L0.117,-0.143C0.142,-0.118 0.17,-0.098 0.203,-0.084C0.236,-0.069 0.271,-0.061 0.309,-0.061C0.354,-0.061 0.39,-0.071 0.415,-0.09C0.44,-0.109 0.452,-0.134 0.452,-0.165C0.452,-0.182 0.449,-0.197 0.443,-0.209C0.437,-0.221 0.429,-0.231 0.418,-0.24C0.407,-0.249 0.395,-0.256 0.381,-0.263C0.366,-0.27 0.351,-0.277 0.334,-0.284L0.24,-0.325C0.223,-0.332 0.207,-0.34 0.19,-0.349C0.173,-0.358 0.158,-0.37 0.145,-0.383C0.131,-0.396 0.12,-0.412 0.111,-0.431C0.102,-0.449 0.098,-0.47 0.098,-0.494C0.098,-0.519 0.103,-0.542 0.114,-0.563C0.125,-0.584 0.139,-0.603 0.159,-0.619C0.178,-0.634 0.2,-0.646 0.227,-0.655C0.253,-0.664 0.282,-0.668 0.313,-0.668C0.354,-0.668 0.392,-0.661 0.427,-0.646C0.462,-0.63 0.491,-0.611 0.515,-0.587L0.471,-0.533C0.45,-0.552 0.426,-0.568 0.4,-0.579C0.374,-0.59 0.344,-0.595 0.31,-0.595C0.272,-0.595 0.241,-0.587 0.218,-0.57C0.195,-0.553 0.183,-0.529 0.183,-0.499C0.183,-0.483 0.187,-0.47 0.194,-0.459C0.201,-0.448 0.21,-0.438 0.221,-0.43C0.232,-0.421 0.244,-0.414 0.258,-0.408C0.272,-0.402 0.286,-0.396 0.3,-0.39L0.392,-0.35C0.412,-0.342 0.431,-0.333 0.449,-0.323C0.466,-0.312 0.482,-0.3 0.495,-0.287C0.507,-0.273 0.518,-0.257 0.526,-0.239C0.533,-0.22 0.537,-0.199 0.537,-0.175C0.537,-0.149 0.532,-0.125 0.521,-0.102C0.51,-0.079 0.495,-0.06 0.475,-0.043C0.455,-0.026 0.431,-0.012 0.402,-0.003C0.373,0.007 0.341,0.012 0.305,0.012Z" style="fill:rgb(236,239,243);fill-rule:nonzero;"/>
                </g>
                <g transform="matrix(79.1667,0,0,79.1667,401.772,1005.81)">
                    <path d="M0.3,0.012C0.263,0.012 0.229,0.004 0.198,-0.012C0.167,-0.027 0.141,-0.05 0.119,-0.079C0.096,-0.108 0.079,-0.144 0.067,-0.187C0.054,-0.229 0.048,-0.277 0.048,-0.331C0.048,-0.384 0.054,-0.431 0.067,-0.473C0.079,-0.515 0.096,-0.55 0.119,-0.579C0.141,-0.608 0.167,-0.63 0.198,-0.645C0.229,-0.66 0.263,-0.668 0.3,-0.668C0.337,-0.668 0.371,-0.66 0.402,-0.645C0.433,-0.63 0.459,-0.608 0.482,-0.579C0.504,-0.55 0.521,-0.515 0.534,-0.473C0.546,-0.431 0.552,-0.384 0.552,-0.331C0.552,-0.277 0.546,-0.229 0.534,-0.187C0.521,-0.144 0.504,-0.108 0.482,-0.079C0.459,-0.05 0.433,-0.027 0.402,-0.012C0.371,0.004 0.337,0.012 0.3,0.012ZM0.3,-0.061C0.325,-0.061 0.347,-0.067 0.368,-0.08C0.389,-0.092 0.406,-0.11 0.421,-0.133C0.435,-0.156 0.446,-0.185 0.454,-0.218C0.462,-0.251 0.466,-0.289 0.466,-0.331C0.466,-0.372 0.462,-0.409 0.454,-0.442C0.446,-0.475 0.435,-0.502 0.421,-0.525C0.406,-0.548 0.389,-0.565 0.368,-0.577C0.347,-0.589 0.325,-0.595 0.3,-0.595C0.275,-0.595 0.252,-0.589 0.232,-0.577C0.211,-0.565 0.194,-0.548 0.18,-0.525C0.165,-0.502 0.154,-0.475 0.146,-0.442C0.138,-0.409 0.134,-0.372 0.134,-0.331C0.134,-0.289 0.138,-0.251 0.146,-0.218C0.154,-0.185 0.165,-0.156 0.18,-0.133C0.194,-0.11 0.211,-0.092 0.232,-0.08C0.252,-0.067 0.275,-0.061 0.3,-0.061Z" style="fill:rgb(236,239,243);fill-rule:nonzero;"/>
                </g>
                <g transform="matrix(79.1667,0,0,79.1667,449.272,1005.81)">
                    <path d="M0.087,0L0.087,-0.656L0.249,-0.656C0.348,-0.656 0.424,-0.628 0.476,-0.572C0.527,-0.516 0.553,-0.436 0.553,-0.331C0.553,-0.226 0.527,-0.145 0.476,-0.087C0.424,-0.029 0.35,0 0.253,0L0.087,0ZM0.17,-0.068L0.243,-0.068C0.318,-0.068 0.375,-0.091 0.412,-0.137C0.449,-0.183 0.467,-0.248 0.467,-0.331C0.467,-0.414 0.449,-0.478 0.412,-0.522C0.375,-0.566 0.318,-0.588 0.243,-0.588L0.17,-0.588L0.17,-0.068Z" style="fill:rgb(236,239,243);fill-rule:nonzero;"/>
                </g>
                <g transform="matrix(79.1667,0,0,79.1667,496.772,1005.81)">
                    <path d="M0.114,0L0.114,-0.656L0.52,-0.656L0.52,-0.586L0.198,-0.586L0.198,-0.38L0.47,-0.38L0.47,-0.309L0.198,-0.309L0.198,-0.071L0.53,-0.071L0.53,0L0.114,0Z" style="fill:rgb(236,239,243);fill-rule:nonzero;"/>
                </g>
                <g transform="matrix(79.1667,0,0,79.1667,591.772,1005.81)">
                    <path d="M0.097,0L0.097,-0.068L0.281,-0.068L0.281,-0.538L0.138,-0.538L0.138,-0.591C0.176,-0.596 0.208,-0.603 0.233,-0.61C0.258,-0.617 0.281,-0.627 0.302,-0.638L0.363,-0.638L0.363,-0.068L0.53,-0.068L0.53,0L0.097,0Z" style="fill:rgb(236,239,243);fill-rule:nonzero;"/>
                </g>
                <g transform="matrix(79.1667,0,0,79.1667,639.272,1005.81)">
                    <path d="M0.3,0.012C0.229,0.012 0.173,-0.017 0.132,-0.075C0.091,-0.132 0.071,-0.214 0.071,-0.321C0.071,-0.428 0.091,-0.51 0.132,-0.566C0.173,-0.622 0.229,-0.65 0.3,-0.65C0.371,-0.65 0.427,-0.622 0.468,-0.566C0.509,-0.51 0.529,-0.428 0.529,-0.321C0.529,-0.214 0.509,-0.132 0.468,-0.075C0.427,-0.017 0.371,0.012 0.3,0.012ZM0.3,-0.054C0.345,-0.054 0.381,-0.076 0.41,-0.119C0.438,-0.162 0.452,-0.23 0.452,-0.321C0.452,-0.367 0.448,-0.407 0.441,-0.44C0.434,-0.472 0.423,-0.5 0.41,-0.522C0.396,-0.543 0.38,-0.559 0.361,-0.569C0.342,-0.579 0.322,-0.584 0.3,-0.584C0.278,-0.584 0.258,-0.579 0.239,-0.569C0.22,-0.559 0.204,-0.543 0.191,-0.522C0.177,-0.5 0.166,-0.472 0.159,-0.44C0.152,-0.407 0.148,-0.367 0.148,-0.321C0.148,-0.23 0.162,-0.162 0.191,-0.119C0.219,-0.076 0.255,-0.054 0.3,-0.054ZM0.3,-0.261C0.283,-0.261 0.269,-0.267 0.257,-0.279C0.244,-0.29 0.238,-0.307 0.238,-0.328C0.238,-0.349 0.244,-0.365 0.257,-0.377C0.269,-0.388 0.283,-0.394 0.3,-0.394C0.317,-0.394 0.331,-0.388 0.344,-0.377C0.356,-0.365 0.362,-0.349 0.362,-0.328C0.362,-0.307 0.356,-0.29 0.344,-0.279C0.331,-0.267 0.317,-0.261 0.3,-0.261Z" style="fill:rgb(236,239,243);fill-rule:nonzero;"/>
                </g>
                <g transform="matrix(79.1667,0,0,79.1667,211.772,1134.98)">
                    <path d="M0.305,0.012C0.257,0.012 0.213,0.003 0.173,-0.014C0.132,-0.031 0.097,-0.055 0.067,-0.085L0.117,-0.143C0.142,-0.118 0.17,-0.098 0.203,-0.084C0.236,-0.069 0.271,-0.061 0.309,-0.061C0.354,-0.061 0.39,-0.071 0.415,-0.09C0.44,-0.109 0.452,-0.134 0.452,-0.165C0.452,-0.182 0.449,-0.197 0.443,-0.209C0.437,-0.221 0.429,-0.231 0.418,-0.24C0.407,-0.249 0.395,-0.256 0.381,-0.263C0.366,-0.27 0.351,-0.277 0.334,-0.284L0.24,-0.325C0.223,-0.332 0.207,-0.34 0.19,-0.349C0.173,-0.358 0.158,-0.37 0.145,-0.383C0.131,-0.396 0.12,-0.412 0.111,-0.431C0.102,-0.449 0.098,-0.47 0.098,-0.494C0.098,-0.519 0.103,-0.542 0.114,-0.563C0.125,-0.584 0.139,-0.603 0.159,-0.619C0.178,-0.634 0.2,-0.646 0.227,-0.655C0.253,-0.664 0.282,-0.668 0.313,-0.668C0.354,-0.668 0.392,-0.661 0.427,-0.646C0.462,-0.63 0.491,-0.611 0.515,-0.587L0.471,-0.533C0.45,-0.552 0.426,-0.568 0.4,-0.579C0.374,-0.59 0.344,-0.595 0.31,-0.595C0.272,-0.595 0.241,-0.587 0.218,-0.57C0.195,-0.553 0.183,-0.529 0.183,-0.499C0.183,-0.483 0.187,-0.47 0.194,-0.459C0.201,-0.448 0.21,-0.438 0.221,-0.43C0.232,-0.421 0.244,-0.414 0.258,-0.408C0.272,-0.402 0.286,-0.396 0.3,-0.39L0.392,-0.35C0.412,-0.342 0.431,-0.333 0.449,-0.323C0.466,-0.312 0.482,-0.3 0.495,-0.287C0.507,-0.273 0.518,-0.257 0.526,-0.239C0.533,-0.22 0.537,-0.199 0.537,-0.175C0.537,-0.149 0.532,-0.125 0.521,-0.102C0.51,-0.079 0.495,-0.06 0.475,-0.043C0.455,-0.026 0.431,-0.012 0.402,-0.003C0.373,0.007 0.341,0.012 0.305,0.012Z" style="fill:rgb(236,239,243);fill-rule:nonzero;"/>
                </g>
                <g transform="matrix(79.1667,0,0,79.1667,259.272,1134.98)">
                    <path d="M0.33,0.012C0.293,0.012 0.259,0.006 0.228,-0.005C0.196,-0.016 0.168,-0.033 0.145,-0.055C0.121,-0.077 0.102,-0.104 0.089,-0.136C0.075,-0.167 0.068,-0.203 0.068,-0.244C0.068,-0.283 0.075,-0.319 0.089,-0.35C0.102,-0.381 0.121,-0.408 0.144,-0.43C0.167,-0.452 0.193,-0.469 0.223,-0.481C0.252,-0.492 0.283,-0.498 0.316,-0.498C0.351,-0.498 0.382,-0.493 0.41,-0.482C0.437,-0.47 0.46,-0.455 0.48,-0.435C0.499,-0.415 0.513,-0.391 0.523,-0.363C0.533,-0.335 0.538,-0.304 0.538,-0.27C0.538,-0.261 0.538,-0.252 0.537,-0.243C0.536,-0.234 0.535,-0.227 0.534,-0.22L0.151,-0.22C0.156,-0.165 0.177,-0.123 0.212,-0.096C0.247,-0.068 0.289,-0.054 0.34,-0.054C0.369,-0.054 0.396,-0.058 0.42,-0.067C0.443,-0.075 0.466,-0.086 0.488,-0.1L0.518,-0.046C0.494,-0.03 0.466,-0.016 0.436,-0.005C0.405,0.006 0.369,0.012 0.33,0.012ZM0.318,-0.433C0.298,-0.433 0.279,-0.43 0.261,-0.423C0.242,-0.416 0.226,-0.407 0.211,-0.395C0.196,-0.382 0.184,-0.367 0.174,-0.348C0.164,-0.329 0.157,-0.308 0.153,-0.284L0.463,-0.284C0.46,-0.334 0.445,-0.371 0.42,-0.396C0.394,-0.421 0.36,-0.433 0.318,-0.433Z" style="fill:rgb(236,239,243);fill-rule:nonzero;"/>
                </g>
                <g transform="matrix(79.1667,0,0,79.1667,306.772,1134.98)">
                    <path d="M0.33,0.012C0.293,0.012 0.259,0.006 0.228,-0.005C0.196,-0.016 0.168,-0.033 0.145,-0.055C0.121,-0.077 0.102,-0.104 0.089,-0.136C0.075,-0.167 0.068,-0.203 0.068,-0.244C0.068,-0.283 0.075,-0.319 0.089,-0.35C0.102,-0.381 0.121,-0.408 0.144,-0.43C0.167,-0.452 0.193,-0.469 0.223,-0.481C0.252,-0.492 0.283,-0.498 0.316,-0.498C0.351,-0.498 0.382,-0.493 0.41,-0.482C0.437,-0.47 0.46,-0.455 0.48,-0.435C0.499,-0.415 0.513,-0.391 0.523,-0.363C0.533,-0.335 0.538,-0.304 0.538,-0.27C0.538,-0.261 0.538,-0.252 0.537,-0.243C0.536,-0.234 0.535,-0.227 0.534,-0.22L0.151,-0.22C0.156,-0.165 0.177,-0.123 0.212,-0.096C0.247,-0.068 0.289,-0.054 0.34,-0.054C0.369,-0.054 0.396,-0.058 0.42,-0.067C0.443,-0.075 0.466,-0.086 0.488,-0.1L0.518,-0.046C0.494,-0.03 0.466,-0.016 0.436,-0.005C0.405,0.006 0.369,0.012 0.33,0.012ZM0.318,-0.433C0.298,-0.433 0.279,-0.43 0.261,-0.423C0.242,-0.416 0.226,-0.407 0.211,-0.395C0.196,-0.382 0.184,-0.367 0.174,-0.348C0.164,-0.329 0.157,-0.308 0.153,-0.284L0.463,-0.284C0.46,-0.334 0.445,-0.371 0.42,-0.396C0.394,-0.421 0.36,-0.433 0.318,-0.433Z" style="fill:rgb(236,239,243);fill-rule:nonzero;"/>
                </g>
                <g transform="matrix(79.1667,0,0,79.1667,354.272,1134.98)">
                    <path d="M0.316,0L0.316,-0.419L0.09,-0.419L0.09,-0.486L0.398,-0.486L0.398,0L0.316,0ZM0.348,-0.588C0.329,-0.588 0.314,-0.594 0.301,-0.606C0.288,-0.617 0.282,-0.633 0.282,-0.652C0.282,-0.671 0.288,-0.687 0.301,-0.699C0.314,-0.71 0.329,-0.716 0.348,-0.716C0.367,-0.716 0.382,-0.71 0.395,-0.699C0.408,-0.687 0.414,-0.671 0.414,-0.652C0.414,-0.633 0.408,-0.617 0.395,-0.606C0.382,-0.594 0.367,-0.588 0.348,-0.588Z" style="fill:rgb(236,239,243);fill-rule:nonzero;"/>
                </g>
                <g transform="matrix(79.1667,0,0,79.1667,401.772,1134.98)">
                    <path d="M0.093,0L0.093,-0.486L0.161,-0.486L0.168,-0.403L0.172,-0.403C0.197,-0.43 0.225,-0.453 0.254,-0.471C0.283,-0.489 0.317,-0.498 0.355,-0.498C0.413,-0.498 0.456,-0.482 0.483,-0.449C0.509,-0.416 0.523,-0.367 0.523,-0.302L0.523,0L0.441,0L0.441,-0.291C0.441,-0.337 0.432,-0.371 0.415,-0.394C0.398,-0.416 0.369,-0.427 0.329,-0.427C0.314,-0.427 0.301,-0.425 0.289,-0.422C0.276,-0.418 0.264,-0.412 0.252,-0.405C0.24,-0.398 0.228,-0.389 0.215,-0.378C0.202,-0.367 0.189,-0.354 0.175,-0.339L0.175,0L0.093,0Z" style="fill:rgb(236,239,243);fill-rule:nonzero;"/>
                </g>
                <g transform="matrix(79.1667,0,0,79.1667,449.272,1134.98)">
                    <path d="M0.296,0.224C0.225,0.224 0.169,0.212 0.131,0.189C0.092,0.166 0.072,0.132 0.072,0.089C0.072,0.07 0.079,0.051 0.093,0.032C0.106,0.013 0.126,-0.004 0.152,-0.019L0.152,-0.023C0.139,-0.03 0.127,-0.04 0.117,-0.053C0.107,-0.066 0.102,-0.082 0.102,-0.103C0.102,-0.118 0.107,-0.134 0.117,-0.151C0.127,-0.167 0.141,-0.181 0.16,-0.194L0.16,-0.198C0.143,-0.211 0.129,-0.228 0.118,-0.249C0.106,-0.27 0.1,-0.295 0.1,-0.324C0.1,-0.351 0.105,-0.375 0.116,-0.396C0.126,-0.417 0.14,-0.436 0.157,-0.451C0.174,-0.466 0.195,-0.477 0.218,-0.486C0.241,-0.494 0.265,-0.498 0.291,-0.498C0.318,-0.498 0.342,-0.494 0.363,-0.486L0.564,-0.486L0.564,-0.419L0.438,-0.419C0.449,-0.408 0.459,-0.393 0.467,-0.376C0.475,-0.359 0.479,-0.34 0.479,-0.321C0.479,-0.295 0.474,-0.272 0.465,-0.251C0.455,-0.23 0.442,-0.213 0.425,-0.199C0.408,-0.184 0.388,-0.173 0.365,-0.166C0.341,-0.158 0.317,-0.154 0.291,-0.154C0.278,-0.154 0.265,-0.156 0.251,-0.159C0.236,-0.162 0.222,-0.166 0.209,-0.172C0.184,-0.156 0.171,-0.137 0.171,-0.116C0.171,-0.097 0.18,-0.083 0.198,-0.074C0.215,-0.065 0.24,-0.06 0.272,-0.06L0.381,-0.06C0.444,-0.06 0.49,-0.051 0.521,-0.034C0.551,-0.017 0.566,0.013 0.566,0.054C0.566,0.077 0.56,0.098 0.547,0.119C0.534,0.14 0.516,0.158 0.493,0.173C0.47,0.188 0.441,0.201 0.408,0.21C0.375,0.219 0.337,0.224 0.296,0.224ZM0.291,-0.209C0.322,-0.209 0.349,-0.219 0.371,-0.24C0.392,-0.261 0.403,-0.289 0.403,-0.324C0.403,-0.341 0.4,-0.356 0.394,-0.37C0.388,-0.384 0.38,-0.396 0.37,-0.406C0.36,-0.416 0.348,-0.424 0.335,-0.43C0.321,-0.435 0.306,-0.438 0.291,-0.438C0.276,-0.438 0.261,-0.435 0.248,-0.43C0.234,-0.424 0.222,-0.416 0.212,-0.406C0.202,-0.396 0.194,-0.384 0.188,-0.37C0.182,-0.356 0.179,-0.341 0.179,-0.324C0.179,-0.289 0.19,-0.261 0.212,-0.24C0.234,-0.219 0.26,-0.209 0.291,-0.209ZM0.302,0.164C0.33,0.164 0.355,0.161 0.378,0.156C0.401,0.151 0.42,0.143 0.436,0.135C0.452,0.126 0.464,0.115 0.473,0.104C0.481,0.092 0.485,0.08 0.485,0.067C0.485,0.044 0.476,0.028 0.458,0.02C0.439,0.012 0.411,0.008 0.374,0.008L0.279,0.008C0.265,0.008 0.252,0.008 0.24,0.007C0.227,0.006 0.216,0.003 0.205,0C0.182,0.013 0.166,0.026 0.157,0.04C0.148,0.053 0.143,0.067 0.143,0.081C0.143,0.106 0.157,0.127 0.184,0.142C0.211,0.157 0.25,0.164 0.302,0.164Z" style="fill:rgb(236,239,243);fill-rule:nonzero;"/>
                </g>
                <g transform="matrix(79.1667,0,0,79.1667,544.272,1134.98)">
                    <path d="M0.11,0L0.01,-0.657L0.104,-0.657L0.152,-0.245C0.153,-0.231 0.155,-0.218 0.156,-0.207C0.157,-0.196 0.159,-0.184 0.16,-0.173C0.161,-0.161 0.162,-0.149 0.163,-0.136C0.164,-0.123 0.164,-0.109 0.165,-0.093L0.168,-0.093C0.171,-0.109 0.173,-0.123 0.176,-0.136C0.179,-0.149 0.181,-0.161 0.184,-0.173C0.186,-0.184 0.188,-0.196 0.191,-0.207C0.194,-0.218 0.197,-0.231 0.2,-0.244L0.264,-0.488L0.344,-0.488L0.406,-0.244C0.409,-0.231 0.412,-0.218 0.415,-0.207C0.418,-0.196 0.42,-0.184 0.423,-0.173C0.425,-0.161 0.427,-0.149 0.43,-0.136C0.432,-0.123 0.435,-0.109 0.438,-0.093L0.442,-0.093C0.443,-0.109 0.444,-0.123 0.445,-0.136C0.446,-0.149 0.447,-0.161 0.448,-0.173C0.448,-0.184 0.45,-0.196 0.451,-0.207C0.452,-0.218 0.453,-0.231 0.454,-0.244L0.5,-0.657L0.59,-0.657L0.494,0L0.39,0L0.326,-0.264C0.321,-0.284 0.316,-0.304 0.313,-0.323C0.309,-0.342 0.305,-0.362 0.302,-0.382L0.299,-0.382C0.296,-0.362 0.292,-0.342 0.289,-0.323C0.286,-0.304 0.281,-0.284 0.276,-0.264L0.212,0L0.11,0Z" style="fill:rgb(236,239,243);fill-rule:nonzero;"/>
                </g>
                <g transform="matrix(79.1667,0,0,79.1667,591.772,1134.98)">
                    <path d="M0.316,0L0.316,-0.419L0.09,-0.419L0.09,-0.486L0.398,-0.486L0.398,0L0.316,0ZM0.348,-0.588C0.329,-0.588 0.314,-0.594 0.301,-0.606C0.288,-0.617 0.282,-0.633 0.282,-0.652C0.282,-0.671 0.288,-0.687 0.301,-0.699C0.314,-0.71 0.329,-0.716 0.348,-0.716C0.367,-0.716 0.382,-0.71 0.395,-0.699C0.408,-0.687 0.414,-0.671 0.414,-0.652C0.414,-0.633 0.408,-0.617 0.395,-0.606C0.382,-0.594 0.367,-0.588 0.348,-0.588Z" style="fill:rgb(236,239,243);fill-rule:nonzero;"/>
                </g>
                <g transform="matrix(79.1667,0,0,79.1667,639.272,1134.98)">
                    <path d="M0.394,0.012C0.359,0.012 0.329,0.007 0.305,-0.003C0.281,-0.012 0.262,-0.026 0.247,-0.044C0.232,-0.061 0.222,-0.082 0.216,-0.107C0.209,-0.132 0.206,-0.159 0.206,-0.189L0.206,-0.419L0.069,-0.419L0.069,-0.481L0.209,-0.486L0.22,-0.642L0.288,-0.642L0.288,-0.486L0.527,-0.486L0.527,-0.419L0.288,-0.419L0.288,-0.188C0.288,-0.166 0.29,-0.147 0.294,-0.131C0.298,-0.114 0.305,-0.1 0.314,-0.089C0.323,-0.078 0.336,-0.069 0.352,-0.064C0.368,-0.058 0.388,-0.055 0.411,-0.055C0.434,-0.055 0.455,-0.057 0.474,-0.061C0.493,-0.065 0.511,-0.07 0.528,-0.077L0.546,-0.017C0.524,-0.009 0.501,-0.002 0.477,0.004C0.452,0.009 0.425,0.012 0.394,0.012Z" style="fill:rgb(236,239,243);fill-rule:nonzero;"/>
                </g>
                <g transform="matrix(79.1667,0,0,79.1667,686.772,1134.98)">
                    <path d="M0.093,0L0.093,-0.712L0.175,-0.712L0.175,-0.518L0.17,-0.403L0.173,-0.403C0.198,-0.43 0.226,-0.453 0.255,-0.471C0.284,-0.489 0.317,-0.498 0.355,-0.498C0.413,-0.498 0.456,-0.482 0.483,-0.449C0.509,-0.416 0.523,-0.367 0.523,-0.302L0.523,0L0.441,0L0.441,-0.291C0.441,-0.337 0.432,-0.371 0.415,-0.394C0.398,-0.416 0.369,-0.427 0.329,-0.427C0.314,-0.427 0.301,-0.425 0.289,-0.422C0.276,-0.418 0.264,-0.412 0.252,-0.405C0.24,-0.398 0.228,-0.389 0.215,-0.378C0.202,-0.367 0.189,-0.354 0.175,-0.339L0.175,0L0.093,0Z" style="fill:rgb(236,239,243);fill-rule:nonzero;"/>
                </g>
                <g transform="matrix(79.1667,0,0,79.1667,211.772,1214.14)">
                    <path d="M0.114,0L0.114,-0.656L0.52,-0.656L0.52,-0.586L0.198,-0.586L0.198,-0.38L0.47,-0.38L0.47,-0.309L0.198,-0.309L0.198,-0.071L0.53,-0.071L0.53,0L0.114,0Z" style="fill:rgb(236,239,243);fill-rule:nonzero;"/>
                </g>
                <g transform="matrix(79.1667,0,0,79.1667,259.272,1214.14)">
                    <path d="M0.407,0.012C0.355,0.012 0.315,-0.003 0.288,-0.032C0.261,-0.061 0.247,-0.105 0.247,-0.163L0.247,-0.645L0.074,-0.645L0.074,-0.712L0.329,-0.712L0.329,-0.157C0.329,-0.121 0.338,-0.095 0.355,-0.08C0.372,-0.064 0.396,-0.056 0.425,-0.056C0.454,-0.056 0.484,-0.063 0.516,-0.078L0.537,-0.017C0.514,-0.008 0.494,0 0.475,0.005C0.456,0.01 0.434,0.012 0.407,0.012Z" style="fill:rgb(236,239,243);fill-rule:nonzero;"/>
                </g>
                <g transform="matrix(79.1667,0,0,79.1667,306.772,1214.14)">
                    <path d="M0.33,0.012C0.293,0.012 0.259,0.006 0.228,-0.005C0.196,-0.016 0.168,-0.033 0.145,-0.055C0.121,-0.077 0.102,-0.104 0.089,-0.136C0.075,-0.167 0.068,-0.203 0.068,-0.244C0.068,-0.283 0.075,-0.319 0.089,-0.35C0.102,-0.381 0.121,-0.408 0.144,-0.43C0.167,-0.452 0.193,-0.469 0.223,-0.481C0.252,-0.492 0.283,-0.498 0.316,-0.498C0.351,-0.498 0.382,-0.493 0.41,-0.482C0.437,-0.47 0.46,-0.455 0.48,-0.435C0.499,-0.415 0.513,-0.391 0.523,-0.363C0.533,-0.335 0.538,-0.304 0.538,-0.27C0.538,-0.261 0.538,-0.252 0.537,-0.243C0.536,-0.234 0.535,-0.227 0.534,-0.22L0.151,-0.22C0.156,-0.165 0.177,-0.123 0.212,-0.096C0.247,-0.068 0.289,-0.054 0.34,-0.054C0.369,-0.054 0.396,-0.058 0.42,-0.067C0.443,-0.075 0.466,-0.086 0.488,-0.1L0.518,-0.046C0.494,-0.03 0.466,-0.016 0.436,-0.005C0.405,0.006 0.369,0.012 0.33,0.012ZM0.318,-0.433C0.298,-0.433 0.279,-0.43 0.261,-0.423C0.242,-0.416 0.226,-0.407 0.211,-0.395C0.196,-0.382 0.184,-0.367 0.174,-0.348C0.164,-0.329 0.157,-0.308 0.153,-0.284L0.463,-0.284C0.46,-0.334 0.445,-0.371 0.42,-0.396C0.394,-0.421 0.36,-0.433 0.318,-0.433Z" style="fill:rgb(236,239,243);fill-rule:nonzero;"/>
                </g>
                <g transform="matrix(79.1667,0,0,79.1667,354.272,1214.14)">
                    <path d="M0.346,0.012C0.308,0.012 0.273,0.006 0.241,-0.005C0.208,-0.016 0.18,-0.033 0.156,-0.055C0.132,-0.076 0.113,-0.103 0.1,-0.135C0.087,-0.166 0.08,-0.202 0.08,-0.242C0.08,-0.283 0.087,-0.319 0.102,-0.351C0.116,-0.382 0.135,-0.409 0.16,-0.431C0.185,-0.453 0.214,-0.47 0.247,-0.481C0.28,-0.492 0.314,-0.498 0.351,-0.498C0.391,-0.498 0.426,-0.491 0.455,-0.477C0.484,-0.463 0.508,-0.446 0.528,-0.427L0.487,-0.374C0.467,-0.391 0.446,-0.405 0.425,-0.415C0.403,-0.425 0.379,-0.43 0.354,-0.43C0.326,-0.43 0.3,-0.426 0.277,-0.417C0.254,-0.408 0.234,-0.395 0.218,-0.378C0.201,-0.361 0.188,-0.341 0.179,-0.319C0.17,-0.296 0.165,-0.27 0.165,-0.242C0.165,-0.214 0.169,-0.189 0.179,-0.166C0.188,-0.143 0.2,-0.124 0.217,-0.108C0.233,-0.091 0.253,-0.079 0.276,-0.07C0.299,-0.061 0.324,-0.056 0.352,-0.056C0.382,-0.056 0.409,-0.062 0.435,-0.074C0.46,-0.085 0.482,-0.1 0.502,-0.117L0.539,-0.064C0.512,-0.04 0.482,-0.021 0.449,-0.008C0.416,0.005 0.382,0.012 0.346,0.012Z" style="fill:rgb(236,239,243);fill-rule:nonzero;"/>
                </g>
                <g transform="matrix(79.1667,0,0,79.1667,401.772,1214.14)">
                    <path d="M0.394,0.012C0.359,0.012 0.329,0.007 0.305,-0.003C0.281,-0.012 0.262,-0.026 0.247,-0.044C0.232,-0.061 0.222,-0.082 0.216,-0.107C0.209,-0.132 0.206,-0.159 0.206,-0.189L0.206,-0.419L0.069,-0.419L0.069,-0.481L0.209,-0.486L0.22,-0.642L0.288,-0.642L0.288,-0.486L0.527,-0.486L0.527,-0.419L0.288,-0.419L0.288,-0.188C0.288,-0.166 0.29,-0.147 0.294,-0.131C0.298,-0.114 0.305,-0.1 0.314,-0.089C0.323,-0.078 0.336,-0.069 0.352,-0.064C0.368,-0.058 0.388,-0.055 0.411,-0.055C0.434,-0.055 0.455,-0.057 0.474,-0.061C0.493,-0.065 0.511,-0.07 0.528,-0.077L0.546,-0.017C0.524,-0.009 0.501,-0.002 0.477,0.004C0.452,0.009 0.425,0.012 0.394,0.012Z" style="fill:rgb(236,239,243);fill-rule:nonzero;"/>
                </g>
                <g transform="matrix(79.1667,0,0,79.1667,449.272,1214.14)">
                    <path d="M0.146,0L0.146,-0.486L0.214,-0.486L0.221,-0.371L0.224,-0.371C0.249,-0.41 0.281,-0.441 0.318,-0.464C0.355,-0.487 0.396,-0.498 0.441,-0.498C0.459,-0.498 0.476,-0.497 0.491,-0.494C0.506,-0.491 0.522,-0.485 0.537,-0.478L0.518,-0.407C0.501,-0.413 0.486,-0.417 0.475,-0.42C0.463,-0.423 0.447,-0.424 0.428,-0.424C0.391,-0.424 0.356,-0.413 0.323,-0.393C0.289,-0.372 0.257,-0.336 0.228,-0.285L0.228,0L0.146,0Z" style="fill:rgb(236,239,243);fill-rule:nonzero;"/>
                </g>
                <g transform="matrix(79.1667,0,0,79.1667,496.772,1214.14)">
                    <path d="M0.3,0.012C0.268,0.012 0.238,0.006 0.209,-0.005C0.18,-0.016 0.154,-0.033 0.132,-0.055C0.11,-0.076 0.093,-0.103 0.08,-0.135C0.067,-0.166 0.06,-0.202 0.06,-0.242C0.06,-0.283 0.067,-0.319 0.08,-0.351C0.093,-0.382 0.11,-0.409 0.132,-0.431C0.154,-0.453 0.18,-0.47 0.209,-0.481C0.238,-0.492 0.268,-0.498 0.3,-0.498C0.332,-0.498 0.363,-0.492 0.392,-0.481C0.421,-0.47 0.446,-0.453 0.468,-0.431C0.49,-0.409 0.507,-0.382 0.521,-0.351C0.534,-0.319 0.54,-0.283 0.54,-0.242C0.54,-0.202 0.534,-0.166 0.521,-0.135C0.507,-0.103 0.49,-0.076 0.468,-0.055C0.446,-0.033 0.421,-0.016 0.392,-0.005C0.363,0.006 0.332,0.012 0.3,0.012ZM0.3,-0.056C0.323,-0.056 0.345,-0.061 0.364,-0.07C0.383,-0.079 0.399,-0.091 0.413,-0.108C0.426,-0.124 0.437,-0.143 0.444,-0.166C0.451,-0.189 0.455,-0.214 0.455,-0.242C0.455,-0.27 0.451,-0.296 0.444,-0.319C0.437,-0.341 0.426,-0.361 0.413,-0.378C0.399,-0.395 0.383,-0.408 0.364,-0.417C0.345,-0.426 0.323,-0.43 0.3,-0.43C0.277,-0.43 0.256,-0.426 0.237,-0.417C0.218,-0.408 0.201,-0.395 0.188,-0.378C0.174,-0.361 0.163,-0.341 0.156,-0.319C0.149,-0.296 0.145,-0.27 0.145,-0.242C0.145,-0.214 0.149,-0.189 0.156,-0.166C0.163,-0.143 0.174,-0.124 0.188,-0.108C0.201,-0.091 0.218,-0.079 0.237,-0.07C0.256,-0.061 0.277,-0.056 0.3,-0.056Z" style="fill:rgb(236,239,243);fill-rule:nonzero;"/>
                </g>
                <g transform="matrix(79.1667,0,0,79.1667,544.272,1214.14)">
                    <path d="M0.093,0L0.093,-0.486L0.161,-0.486L0.168,-0.403L0.172,-0.403C0.197,-0.43 0.225,-0.453 0.254,-0.471C0.283,-0.489 0.317,-0.498 0.355,-0.498C0.413,-0.498 0.456,-0.482 0.483,-0.449C0.509,-0.416 0.523,-0.367 0.523,-0.302L0.523,0L0.441,0L0.441,-0.291C0.441,-0.337 0.432,-0.371 0.415,-0.394C0.398,-0.416 0.369,-0.427 0.329,-0.427C0.314,-0.427 0.301,-0.425 0.289,-0.422C0.276,-0.418 0.264,-0.412 0.252,-0.405C0.24,-0.398 0.228,-0.389 0.215,-0.378C0.202,-0.367 0.189,-0.354 0.175,-0.339L0.175,0L0.093,0Z" style="fill:rgb(236,239,243);fill-rule:nonzero;"/>
                </g>
                <g transform="matrix(79.1667,0,0,79.1667,591.772,1214.14)">
                    <path d="M0.31,0.012C0.262,0.012 0.218,0.005 0.177,-0.011C0.136,-0.025 0.101,-0.043 0.071,-0.064L0.109,-0.118C0.137,-0.098 0.168,-0.082 0.202,-0.07C0.235,-0.058 0.275,-0.052 0.32,-0.052C0.361,-0.052 0.392,-0.059 0.413,-0.075C0.433,-0.09 0.443,-0.107 0.443,-0.128C0.443,-0.137 0.441,-0.146 0.438,-0.154C0.435,-0.162 0.428,-0.17 0.417,-0.177C0.405,-0.184 0.39,-0.191 0.37,-0.198C0.35,-0.205 0.324,-0.211 0.291,-0.218C0.228,-0.231 0.18,-0.249 0.149,-0.272C0.117,-0.294 0.101,-0.323 0.101,-0.36C0.101,-0.379 0.105,-0.398 0.114,-0.415C0.123,-0.432 0.135,-0.446 0.153,-0.459C0.169,-0.471 0.191,-0.481 0.216,-0.488C0.241,-0.495 0.27,-0.498 0.303,-0.498C0.34,-0.498 0.376,-0.492 0.411,-0.48C0.446,-0.467 0.475,-0.453 0.499,-0.436L0.459,-0.383C0.436,-0.398 0.411,-0.411 0.384,-0.42C0.357,-0.429 0.327,-0.434 0.296,-0.434C0.255,-0.434 0.226,-0.427 0.209,-0.413C0.192,-0.399 0.184,-0.383 0.184,-0.364C0.184,-0.343 0.195,-0.327 0.217,-0.316C0.239,-0.305 0.275,-0.294 0.325,-0.283C0.366,-0.274 0.399,-0.265 0.425,-0.256C0.451,-0.246 0.472,-0.235 0.487,-0.223C0.501,-0.211 0.512,-0.198 0.518,-0.183C0.523,-0.168 0.526,-0.152 0.526,-0.133C0.526,-0.113 0.521,-0.094 0.512,-0.077C0.503,-0.06 0.489,-0.044 0.471,-0.031C0.452,-0.018 0.43,-0.007 0.403,0.001C0.376,0.008 0.345,0.012 0.31,0.012Z" style="fill:rgb(236,239,243);fill-rule:nonzero;"/>
                </g>
            </g>
        </g>
    </g>
</svg>
