<?xml version="1.0" encoding="UTF-8" standalone="no"?>
<!DOCTYPE svg PUBLIC "-//W3C//DTD SVG 1.1//EN" "http://www.w3.org/Graphics/SVG/1.1/DTD/svg11.dtd">
<svg width="100%" height="100%" viewBox="0 0 1063 112" version="1.1" xmlns="http://www.w3.org/2000/svg" xmlns:xlink="http://www.w3.org/1999/xlink" xml:space="preserve" xmlns:serif="http://www.serif.com/" style="fill-rule:evenodd;clip-rule:evenodd;stroke-linejoin:round;stroke-miterlimit:2;">
    <g transform="matrix(1,0,0,1,-43.7908,-52.4067)">
        <g transform="matrix(0.75792,0,0,0.75792,-55.6015,-17.2024)">
            <g transform="matrix(1,0,0,0.98,0,4.72817)">
                <g transform="matrix(220.833,0,0,220.833,115.238,236.409)">
                    <path d="M0.072,-0L0.072,-0.656L0.174,-0.656L0.266,-0.376L0.298,-0.27L0.302,-0.27L0.333,-0.376L0.426,-0.656L0.528,-0.656L0.528,-0L0.448,-0L0.448,-0.328C0.448,-0.344 0.448,-0.363 0.45,-0.384C0.451,-0.405 0.452,-0.426 0.454,-0.447C0.455,-0.468 0.457,-0.489 0.458,-0.509C0.459,-0.529 0.461,-0.546 0.462,-0.56L0.459,-0.56L0.422,-0.432L0.328,-0.174L0.268,-0.174L0.176,-0.432L0.138,-0.56L0.136,-0.56C0.137,-0.546 0.139,-0.529 0.141,-0.509C0.142,-0.489 0.144,-0.468 0.145,-0.447C0.146,-0.426 0.148,-0.405 0.149,-0.384C0.15,-0.363 0.15,-0.344 0.15,-0.328L0.15,-0L0.072,-0Z" style="fill:rgb(236,239,243);fill-rule:nonzero;"/>
                </g>
            </g>
            <g transform="matrix(1,0,0,0.98,0,4.72817)">
                <path d="M257.234,236.409L257.234,225.367L303.388,91.542L324.588,91.542L370.742,225.367L370.742,236.409L257.234,236.409ZM277.33,220.729L350.426,220.729L329.005,156.025C326.502,148.075 324.036,140.052 321.607,131.954C319.178,123.857 316.712,115.613 314.209,107.221L313.326,107.221C310.823,115.613 308.357,123.857 305.928,131.954C303.499,140.052 301.033,148.075 298.53,156.025L277.33,220.729Z" style="fill:url(#_Linear1);fill-rule:nonzero;"/>
            </g>
            <g transform="matrix(1,0,0,0.98,0,4.72817)">
                <g transform="matrix(220.833,0,0,220.833,357.051,236.409)">
                    <path d="M0.258,-0L0.258,-0.586L0.042,-0.586L0.042,-0.656L0.558,-0.656L0.558,-0.586L0.342,-0.586L0.342,-0L0.258,-0Z" style="fill:rgb(236,239,243);fill-rule:nonzero;"/>
                </g>
                <g transform="matrix(220.833,0,0,220.833,489.551,236.409)">
                    <path d="M0.114,-0L0.114,-0.656L0.52,-0.656L0.52,-0.586L0.198,-0.586L0.198,-0.38L0.47,-0.38L0.47,-0.309L0.198,-0.309L0.198,-0.071L0.53,-0.071L0.53,-0L0.114,-0Z" style="fill:rgb(236,239,243);fill-rule:nonzero;"/>
                </g>
                <g transform="matrix(220.833,0,0,220.833,622.051,236.409)">
                    <path d="M0.1,-0L0.1,-0.656L0.304,-0.656C0.337,-0.656 0.368,-0.653 0.396,-0.647C0.424,-0.64 0.448,-0.63 0.469,-0.615C0.489,-0.6 0.505,-0.581 0.516,-0.558C0.527,-0.535 0.533,-0.506 0.533,-0.472C0.533,-0.421 0.52,-0.38 0.493,-0.349C0.466,-0.318 0.431,-0.297 0.386,-0.286L0.553,-0L0.458,-0L0.3,-0.277L0.183,-0.277L0.183,-0L0.1,-0ZM0.183,-0.345L0.292,-0.345C0.343,-0.345 0.383,-0.356 0.41,-0.377C0.437,-0.398 0.45,-0.429 0.45,-0.472C0.45,-0.515 0.437,-0.546 0.41,-0.563C0.383,-0.58 0.343,-0.589 0.292,-0.589L0.183,-0.589L0.183,-0.345Z" style="fill:rgb(236,239,243);fill-rule:nonzero;"/>
                </g>
                <g transform="matrix(220.833,0,0,220.833,754.551,236.409)">
                    <path d="M0.095,-0L0.095,-0.071L0.258,-0.071L0.258,-0.586L0.095,-0.586L0.095,-0.656L0.505,-0.656L0.505,-0.586L0.342,-0.586L0.342,-0.071L0.505,-0.071L0.505,-0L0.095,-0Z" style="fill:rgb(236,239,243);fill-rule:nonzero;"/>
                </g>
                <g transform="matrix(220.833,0,0,220.833,887.051,236.409)">
                    <path d="M0.232,-0.367L0.201,-0.267L0.397,-0.267L0.366,-0.367C0.355,-0.404 0.343,-0.44 0.333,-0.477C0.322,-0.513 0.311,-0.55 0.301,-0.588L0.297,-0.588C0.286,-0.55 0.276,-0.513 0.265,-0.477C0.254,-0.44 0.243,-0.404 0.232,-0.367ZM0.032,-0L0.253,-0.656L0.347,-0.656L0.568,-0L0.48,-0L0.418,-0.2L0.18,-0.2L0.117,-0L0.032,-0Z" style="fill:rgb(236,239,243);fill-rule:nonzero;"/>
                </g>
                <g transform="matrix(220.833,0,0,220.833,1019.55,236.409)">
                    <path d="M0.134,-0L0.134,-0.656L0.216,-0.656L0.216,-0.071L0.541,-0.071L0.541,-0L0.134,-0Z" style="fill:rgb(236,239,243);fill-rule:nonzero;"/>
                </g>
                <g transform="matrix(220.833,0,0,220.833,1152.05,236.409)">
                    <path d="M0.095,-0L0.095,-0.071L0.258,-0.071L0.258,-0.586L0.095,-0.586L0.095,-0.656L0.505,-0.656L0.505,-0.586L0.342,-0.586L0.342,-0.071L0.505,-0.071L0.505,-0L0.095,-0Z" style="fill:rgb(236,239,243);fill-rule:nonzero;"/>
                </g>
                <g transform="matrix(220.833,0,0,220.833,1284.55,236.409)">
                    <path d="M0.305,0.012C0.257,0.012 0.213,0.003 0.173,-0.014C0.132,-0.031 0.097,-0.055 0.067,-0.085L0.117,-0.143C0.142,-0.118 0.17,-0.098 0.203,-0.084C0.236,-0.069 0.271,-0.061 0.309,-0.061C0.354,-0.061 0.39,-0.071 0.415,-0.09C0.44,-0.109 0.452,-0.134 0.452,-0.165C0.452,-0.182 0.449,-0.197 0.443,-0.209C0.437,-0.221 0.429,-0.231 0.418,-0.24C0.407,-0.249 0.395,-0.256 0.381,-0.263C0.366,-0.27 0.351,-0.277 0.334,-0.284L0.24,-0.325C0.223,-0.332 0.207,-0.34 0.19,-0.349C0.173,-0.358 0.158,-0.37 0.145,-0.383C0.131,-0.396 0.12,-0.412 0.111,-0.431C0.102,-0.449 0.098,-0.47 0.098,-0.494C0.098,-0.519 0.103,-0.542 0.114,-0.563C0.125,-0.584 0.139,-0.603 0.159,-0.619C0.178,-0.634 0.2,-0.646 0.227,-0.655C0.253,-0.664 0.282,-0.668 0.313,-0.668C0.354,-0.668 0.392,-0.661 0.427,-0.646C0.462,-0.63 0.491,-0.611 0.515,-0.587L0.471,-0.533C0.45,-0.552 0.426,-0.568 0.4,-0.579C0.374,-0.59 0.344,-0.595 0.31,-0.595C0.272,-0.595 0.241,-0.587 0.218,-0.57C0.195,-0.553 0.183,-0.529 0.183,-0.499C0.183,-0.483 0.187,-0.47 0.194,-0.459C0.201,-0.448 0.21,-0.438 0.221,-0.43C0.232,-0.421 0.244,-0.414 0.258,-0.408C0.272,-0.402 0.286,-0.396 0.3,-0.39L0.392,-0.35C0.412,-0.342 0.431,-0.333 0.449,-0.323C0.466,-0.312 0.482,-0.3 0.495,-0.287C0.507,-0.273 0.518,-0.257 0.526,-0.239C0.533,-0.22 0.537,-0.199 0.537,-0.175C0.537,-0.149 0.532,-0.125 0.521,-0.102C0.51,-0.079 0.495,-0.06 0.475,-0.043C0.455,-0.026 0.431,-0.012 0.402,-0.003C0.373,0.007 0.341,0.012 0.305,0.012Z" style="fill:rgb(236,239,243);fill-rule:nonzero;"/>
                </g>
                <g transform="matrix(220.833,0,0,220.833,1417.05,236.409)">
                    <path d="M0.072,-0L0.072,-0.656L0.174,-0.656L0.266,-0.376L0.298,-0.27L0.302,-0.27L0.333,-0.376L0.426,-0.656L0.528,-0.656L0.528,-0L0.448,-0L0.448,-0.328C0.448,-0.344 0.448,-0.363 0.45,-0.384C0.451,-0.405 0.452,-0.426 0.454,-0.447C0.455,-0.468 0.457,-0.489 0.458,-0.509C0.459,-0.529 0.461,-0.546 0.462,-0.56L0.459,-0.56L0.422,-0.432L0.328,-0.174L0.268,-0.174L0.176,-0.432L0.138,-0.56L0.136,-0.56C0.137,-0.546 0.139,-0.529 0.141,-0.509C0.142,-0.489 0.144,-0.468 0.145,-0.447C0.146,-0.426 0.148,-0.405 0.149,-0.384C0.15,-0.363 0.15,-0.344 0.15,-0.328L0.15,-0L0.072,-0Z" style="fill:rgb(236,239,243);fill-rule:nonzero;"/>
                </g>
            </g>
        </g>
    </g>
    <defs>
        <linearGradient id="_Linear1" x1="0" y1="0" x2="1" y2="0" gradientUnits="userSpaceOnUse" gradientTransform="matrix(94.5012,-107.193,105.049,96.4298,257.234,236.409)"><stop offset="0" style="stop-color:rgb(242,137,39);stop-opacity:1"/><stop offset="0.57" style="stop-color:rgb(237,121,40);stop-opacity:1"/><stop offset="0.8" style="stop-color:rgb(227,87,42);stop-opacity:1"/><stop offset="1" style="stop-color:rgb(217,55,43);stop-opacity:1"/></linearGradient>
    </defs>
</svg>
